<svg width="84" height="84" viewBox="0 0 84 84" fill="none" xmlns="http://www.w3.org/2000/svg">
<path d="M24.5345 35.5372C23.6531 33.7029 22.3185 32.068 20.6295 30.7534C18.9406 29.4387 16.9404 28.478 14.7768 27.9421C12.6133 27.4063 10.3418 27.309 8.13019 27.6576C5.91863 28.0062 3.8236 28.7916 2 29.9559M59.4655 35.5372C60.3469 33.7029 61.6815 32.068 63.3705 30.7534C65.0594 29.4387 67.0596 28.478 69.2232 27.9421C71.3867 27.4063 73.6582 27.309 75.8698 27.6576C78.0814 28.0062 80.1764 28.7916 82 29.9559M2 17.471C2 19.5302 2.92132 21.5049 4.56128 22.961C6.20123 24.417 8.42549 25.235 10.7447 25.235C13.064 25.235 15.2883 24.417 16.9282 22.961C18.5682 21.5049 19.4895 19.5302 19.4895 17.471C19.4895 15.4119 18.5682 13.4371 16.9282 11.9811C15.2883 10.5251 13.064 9.70707 10.7447 9.70707C8.42549 9.70707 6.20123 10.5251 4.56128 11.9811C2.92132 13.4371 2 15.4119 2 17.471ZM64.5105 17.471C64.5105 19.5302 65.4318 21.5049 67.0718 22.961C68.7117 24.417 70.936 25.235 73.2553 25.235C75.5745 25.235 77.7988 24.417 79.4387 22.961C81.0787 21.5049 82 19.5302 82 17.471C82 15.4119 81.0787 13.4371 79.4387 11.9811C77.7988 10.5251 75.5745 9.70707 73.2553 9.70707C70.936 9.70707 68.7117 10.5251 67.0718 11.9811C65.4318 13.4371 64.5105 15.4119 64.5105 17.471ZM28.6386 13.8628C28.6386 15.4206 28.9842 16.9632 29.6557 18.4025C30.3272 19.8417 31.3114 21.1495 32.5521 22.251C33.7928 23.3526 35.2658 24.2264 36.8868 24.8226C38.5079 25.4187 40.2454 25.7256 42 25.7256C43.7546 25.7256 45.4921 25.4187 47.1132 24.8226C48.7342 24.2264 50.2072 23.3526 51.4479 22.251C52.6886 21.1495 53.6728 19.8417 54.3443 18.4025C55.0158 16.9632 55.3614 15.4206 55.3614 13.8628C55.3614 10.7166 53.9536 7.69923 51.4479 5.47453C48.9422 3.24982 45.5437 2 42 2C38.4563 2 35.0578 3.24982 32.5521 5.47453C30.0463 7.69923 28.6386 10.7166 28.6386 13.8628Z" stroke="#19456B" stroke-width="4" stroke-linecap="round" stroke-linejoin="round"/>
<path d="M65.115 40.0732C62.1854 37.2161 58.6162 34.9337 54.6358 33.3718C50.6555 31.81 46.3516 31.0033 41.9999 31.0033C37.6481 31.0033 33.3443 31.81 29.3639 33.3718C25.3836 34.9337 21.8144 37.2161 18.8848 40.0732M57.8357 48.5908C57.7696 52.2814 56.0719 55.801 53.1089 58.3902C50.146 60.9793 46.1552 62.4305 41.9979 62.4305C37.8405 62.4305 33.8498 60.9793 30.8868 58.3902C27.9238 55.801 26.2261 52.2814 26.16 48.5908" stroke="#19456B" stroke-width="4" stroke-linecap="round" stroke-linejoin="round"/>
<path d="M79.6136 48.5767V53.8628L72.8068 55.0715C72.0234 58.002 70.7076 60.7997 68.9109 63.3545L72.7907 68.4878L64.3823 75.9531L58.6045 72.5084C55.7236 74.1125 52.5669 75.288 49.2592 75.9887L47.9139 82.0001H36.062L34.7127 75.9887C31.4063 75.2877 28.251 74.1121 25.3713 72.5084L19.5775 75.9389L11.1691 68.4736L15.049 63.3403C13.2509 60.7857 11.9337 57.988 11.1491 55.0573L4.34229 53.8486V48.5767" stroke="#19456B" stroke-width="4" stroke-linecap="round" stroke-linejoin="round"/>
</svg>
