<svg width="75" height="70" viewBox="0 0 75 70" fill="none" xmlns="http://www.w3.org/2000/svg">
<path d="M72.293 0.5L74.5 2.70703V32.293L72.293 34.5H63.3281L63.1816 34.6465L54.1523 43.6797L50.5 42.166V34.5H45.415C45.5287 33.169 45.5287 31.831 45.415 30.5H54.5V37.6719L61.6719 30.5H70.5V4.5H24.5V9.58496C23.169 9.47127 21.831 9.47127 20.5 9.58496V2.70703L22.707 0.5H72.293Z" fill="#19456B" stroke="#19456B"/>
<path d="M22.5 19.5004C19.0522 19.5004 15.7456 20.87 13.3076 23.308C10.8698 25.7459 9.5 29.0527 9.5 32.5004C9.50011 35.948 10.8697 39.2549 13.3076 41.6927C15.7456 44.1306 19.0523 45.5004 22.5 45.5004C25.9477 45.5004 29.2544 44.1306 31.6924 41.6927C34.1303 39.2549 35.4999 35.948 35.5 32.5004C35.5 29.0527 34.1302 25.7459 31.6924 23.308C29.2544 20.87 25.9478 19.5004 22.5 19.5004ZM40.5 67.4828C40.3421 62.8144 38.3759 58.3896 35.0176 55.1429C31.6593 51.8964 27.171 50.0814 22.5 50.0814C17.829 50.0814 13.3407 51.8964 9.98242 55.1429C6.62412 58.3896 4.65791 62.8144 4.5 67.4828V69.5004H0.5V67.5004L0.513672 66.7181C0.652571 62.8174 1.82774 59.0189 3.92383 55.7152C6.15984 52.1911 9.35195 49.375 13.1279 47.597L13.9365 47.2162L13.1885 46.7269C10.1257 44.7219 7.79176 41.7811 6.53418 38.3431C5.27669 34.9052 5.16286 31.1529 6.20898 27.6449C7.25517 24.1369 9.40565 21.06 12.3408 18.8724C15.276 16.6848 18.8392 15.5033 22.5 15.5033C26.1608 15.5033 29.724 16.6848 32.6592 18.8724C35.5943 21.06 37.7448 24.1369 38.791 27.6449C39.8371 31.1529 39.7233 34.9052 38.4658 38.3431C37.2082 41.7811 34.8743 44.7219 31.8115 46.7269L31.0635 47.2162L31.8721 47.597C35.648 49.375 38.8402 52.1911 41.0762 55.7152C43.3121 59.2393 44.4998 63.3268 44.5 67.5004V69.5004H40.5V67.4828Z" fill="#19456B" stroke="#19456B"/>
</svg>
