<svg width="80" height="80" viewBox="0 0 80 80" fill="none" xmlns="http://www.w3.org/2000/svg">
<path d="M55 75C54.5358 74.9998 54.0809 74.8703 53.6862 74.6261C53.2914 74.382 52.9725 74.0327 52.765 73.6175L48.455 65H40V60H50C50.4646 59.9998 50.92 60.129 51.3153 60.3732C51.7105 60.6174 52.0298 60.9669 52.2375 61.3825L55 66.9075L62.765 51.3825C63.225 50.46 64.1125 50 65 50C65.8875 50 66.775 50.46 67.235 51.3825L71.545 60H80V65H70C69.5358 64.9998 69.0809 64.8703 68.6862 64.6261C68.2914 64.382 67.9725 64.0327 67.765 63.6175L65 58.0925L57.2375 73.6175C57.0298 74.0331 56.7105 74.3826 56.3153 74.6268C55.92 74.871 55.4646 75.0002 55 75ZM58.535 25L55 21.465L43.2125 33.25C42.2106 32.7647 41.1132 32.5085 40 32.5C35.865 32.5 32.5 35.865 32.5 40C32.5 44.135 35.865 47.5 40 47.5C44.135 47.5 47.5 44.135 47.5 40C47.5 38.845 47.2175 37.765 46.75 36.7875L58.535 25ZM40 42.5C38.6225 42.5 37.5 41.3775 37.5 40C37.5 38.6225 38.6225 37.5 40 37.5C41.3775 37.5 42.5 38.6225 42.5 40C42.5 41.3775 41.3775 42.5 40 42.5ZM65 40C65.0024 35.9772 64.0241 32.0145 62.15 28.455L58.4125 32.195C59.4325 34.595 60 37.2325 60 40H65ZM40 20C42.7675 20 45.405 20.5675 47.805 21.5875L51.545 17.8475C47.9852 15.9743 44.0226 14.9969 40 15C26.215 15 15 26.215 15 40H20C20 28.9725 28.9725 20 40 20Z" fill="#19456B"/>
<path d="M18.775 61.225C15.9855 58.4402 13.7742 55.1313 12.2683 51.4887C10.7623 47.8461 9.99144 43.9416 10 40C10 23.425 23.425 10 40 10C56.55 10 69.975 23.45 70 40H75C75 20.675 59.325 5 40 5C20.675 5 5 20.675 5 40C5 49.675 8.925 58.425 15.25 64.75L18.775 61.225Z" fill="#19456B"/>
</svg>
